<svg xmlns="http://www.w3.org/2000/svg" width="96" height="96" viewBox="0 0 96 96"><g id="Icon_Selective_Caution" data-name="Icon Selective Caution"><circle id="Core_Blue_40_255F82" data-name="Core Blue 40 255F82" cx="48" cy="48" r="48" style="fill:#255f82"/><path id="Light_Blue_60_00AFD4" data-name="Light Blue 60 00AFD4" d="M48,96A47.92,47.92,0,0,0,86.65,76.47H9.35A47.92,47.92,0,0,0,48,96Z" style="fill:#00afd4"/><path id="Light_Blue_30_78D0EB" data-name="Light Blue 30 78D0EB" d="M75,73.64H67.1L62.41,59.56l-2.82-8.47-2.77-8.33-5.34-16a1.43,1.43,0,0,0-1.34-1H45.86a1.43,1.43,0,0,0-1.34,1L28.9,73.64H21a1.42,1.42,0,1,0,0,2.83H75a1.42,1.42,0,1,0,0-2.83Z" style="fill:#78d0eb"/><path id="White_FFFFFF" data-name="White FFFFFF" d="M54,34.27l2.82,8.47H39.19L42,34.27ZM33.59,59.53H62.41l-2.82-8.47H36.41Z" style="fill:#fff"/><path id="Yellow_50_F9C606" data-name="Yellow 50 F9C606" d="M34.56,25.43a.9.9,0,0,1-.47-.13L29.2,22.48a.94.94,0,0,1-.34-1.29.93.93,0,0,1,1.28-.34L35,23.67a.94.94,0,0,1-.47,1.76Zm6.15-5.82a.94.94,0,0,0,.34-1.29l-2.83-4.88a.94.94,0,0,0-1.63.94l2.84,4.89a.94.94,0,0,0,.81.47A.9.9,0,0,0,40.71,19.61Zm8.22-2.89V11.08a.94.94,0,1,0-1.88,0v5.64a.94.94,0,1,0,1.88,0Zm7.64,2.54,2.82-4.9a.94.94,0,0,0-1.63-.94l-2.82,4.89a.94.94,0,0,0,.34,1.29.9.9,0,0,0,.47.13A1,1,0,0,0,56.57,19.26Zm5.34,6,4.89-2.84a.94.94,0,0,0-.94-1.63L61,23.65a.94.94,0,0,0,.47,1.75A1,1,0,0,0,61.91,25.28Z" style="fill:#f9c606"/></g></svg>